<?xml version="1.0" encoding="UTF-8"?>
<svg id="Layer_1" xmlns="http://www.w3.org/2000/svg" version="1.1" viewBox="0 0 32 32">
  <!-- Generator: Adobe Illustrator 30.2.1, SVG Export Plug-In . SVG Version: 2.1.1 Build 1)  -->
  <defs>
    <style>
      .st0 {
        fill: #3d3d3d;
      }
    </style>
  </defs>
  <path class="st0" d="M16,0C7.2,0,0,7.2,0,16s7.2,16,16,16,16-7.2,16-16S24.8,0,16,0ZM15.1,25.3c-.8,2.3-2.3,4.1-2.8,4.5-.2.2-.4.3-.6.3-.3,0-.8-.5-.8-1s.1-.5.5-.5c.7-.2,1.4-.5,1.7-.9.3-.3.5-.9.6-1.7.1-1,.2-2.3.2-4.5v-4.5c0-1.6-.1-1.7-1.6-1.9v-.5c1.2-.2,2.4-.5,3.4-.9v7.8s0,2.6-.6,3.8ZM14.5,11.8c-.6,0-1.2-.6-1.2-1.2s.5-1.2,1.2-1.2,1.1.5,1.1,1.2-.5,1.2-1.2,1.2h0ZM26,24.2c-1.1-1.2-2.5-3-3.8-4.6-.3-.4-.5-.5-.7-.5h-.4v2.6c0,1.5.2,1.7,1.7,1.8v.6h-5.2v-.6c1.5-.1,1.7-.3,1.7-1.8v-10.9c0-1.5-.1-1.6-1.5-1.8v-.5c1.1-.1,2.4-.5,3.3-.8v10.9c.7-.1,1.1-.4,1.5-.8s1.2-1.4,1.6-2c.5-.7.4-.9-.7-1v-.6l4.7-.2v.6c-1.6.3-2.1.5-3,1.4-.6.6-1,1-2,2.2.5.7,2.8,3.4,3.6,4.2.8.9,1.4,1.2,2.3,1.3v.6h-3.2.1Z"/>
</svg>